<svg xmlns="http://www.w3.org/2000/svg" viewBox="0 0 100 100">
<defs><radialGradient id="bg" cx="50%" cy="35%"><stop offset="0%" stop-color="#2b1218"/><stop offset="100%" stop-color="#0f0a0c"/></radialGradient></defs>
<rect width="100" height="100" rx="14" fill="url(#bg)"/>
<path d="M14 100 q0 -26 36 -26 q36 0 36 26 z" fill="#a32638"/>
<rect x="42" y="56" width="16" height="14" rx="6" fill="#e8b88a"/>
<circle cx="50" cy="42" r="18" fill="#e8b88a"/>
<path d="M28 36 q0 -22 22 -22 q22 0 22 22 l-4 8 q-2 -14 -18 -14 q-16 0 -18 14 z" fill="#1a1a24"/>
<circle cx="43" cy="44" r="2.2" fill="#14141c"/><circle cx="57" cy="44" r="2.2" fill="#14141c"/>
<path d="M45 53 q5 3 10 0" stroke="#14141c" stroke-width="1.8" fill="none" stroke-linecap="round"/>
<rect x="18" y="30" width="64" height="7" rx="3.5" fill="#1a1a24"/><rect x="76" y="30" width="14" height="7" rx="3.5" fill="#d9d9e0"/>
</svg>