<svg xmlns="http://www.w3.org/2000/svg" viewBox="0 0 100 100">
<defs><radialGradient id="bg" cx="50%" cy="35%"><stop offset="0%" stop-color="#1c2733"/><stop offset="100%" stop-color="#0b0f14"/></radialGradient></defs>
<rect width="100" height="100" rx="14" fill="url(#bg)"/>
<path d="M14 100 q0 -26 36 -26 q36 0 36 26 z" fill="#7a8fa6"/>
<rect x="42" y="56" width="16" height="14" rx="6" fill="#f2cba6"/>
<circle cx="50" cy="42" r="18" fill="#f2cba6"/>
<path d="M28 36 q0 -22 22 -22 q22 0 22 22 l-4 8 q-2 -14 -18 -14 q-16 0 -18 14 z" fill="#d9a441"/>
<circle cx="43" cy="44" r="2.2" fill="#14141c"/><circle cx="57" cy="44" r="2.2" fill="#14141c"/>
<path d="M45 53 q5 3 10 0" stroke="#14141c" stroke-width="1.8" fill="none" stroke-linecap="round"/>
<path d="M22 26 q-8 -12 2 -18 q2 8 6 12 z" fill="#e8e8f0"/><path d="M78 26 q8 -12 -2 -18 q-2 8 -6 12 z" fill="#e8e8f0"/>
</svg>